<svg width="120" height="58" viewBox="0 0 104 50" fill="none" xmlns="http://www.w3.org/2000/svg">
<path d="M27 7C24.6362 7 22.2956 7.46558 20.1117 8.37017C17.9278 9.27475 15.9435 10.6006 14.2721 12.2721C12.6006 13.9435 11.2748 15.9278 10.3702 18.1117C9.46558 20.2956 9 22.6362 9 25C9 27.3638 9.46558 29.7044 10.3702 31.8883C11.2748 34.0722 12.6006 36.0565 14.2721 37.7279C15.9435 39.3994 17.9278 40.7252 20.1117 41.6298C22.2956 42.5344 24.6362 43 27 43L27 25L27 7Z" fill="url(#paint0_linear_24_1016)"/>
<path d="M30.2642 24V9.45455H33.3395V15.456H39.5824V9.45455H42.6506V24H39.5824V17.9915H33.3395V24H30.2642ZM48.2401 24.206C47.544 24.206 46.9238 24.0852 46.3793 23.8438C45.8348 23.5975 45.4039 23.2353 45.0866 22.7571C44.7741 22.2741 44.6179 21.6728 44.6179 20.9531C44.6179 20.3471 44.7292 19.8381 44.9517 19.4261C45.1742 19.0142 45.4773 18.6828 45.8608 18.4318C46.2443 18.1809 46.6799 17.9915 47.1676 17.8636C47.66 17.7358 48.1761 17.6458 48.7159 17.5938C49.3504 17.5275 49.8617 17.4659 50.25 17.4091C50.6383 17.3475 50.92 17.2576 51.0952 17.1392C51.2704 17.0208 51.358 16.8456 51.358 16.6136V16.571C51.358 16.1212 51.2159 15.7732 50.9318 15.527C50.6525 15.2808 50.2547 15.1577 49.7386 15.1577C49.1941 15.1577 48.7609 15.2784 48.4389 15.5199C48.117 15.7566 47.9039 16.0549 47.7997 16.4148L45.0014 16.1875C45.1435 15.5246 45.4228 14.9517 45.8395 14.4688C46.2562 13.9811 46.7936 13.607 47.4517 13.3466C48.1146 13.0814 48.8816 12.9489 49.7528 12.9489C50.3589 12.9489 50.9389 13.0199 51.4929 13.1619C52.0516 13.304 52.5464 13.5241 52.9773 13.8224C53.4129 14.1207 53.7562 14.5043 54.0071 14.973C54.258 15.437 54.3835 15.9934 54.3835 16.642V24H51.5142V22.4872H51.429C51.2538 22.8281 51.0194 23.1288 50.7259 23.3892C50.4323 23.6449 50.0795 23.8461 49.6676 23.9929C49.2557 24.1349 48.7798 24.206 48.2401 24.206ZM49.1065 22.1179C49.5516 22.1179 49.9446 22.0303 50.2855 21.8551C50.6264 21.6752 50.8939 21.4337 51.0881 21.1307C51.2822 20.8277 51.3793 20.4844 51.3793 20.1009V18.9432C51.2846 19.0047 51.1544 19.0616 50.9886 19.1136C50.8277 19.161 50.6454 19.206 50.4418 19.2486C50.2382 19.2865 50.0346 19.322 49.831 19.3551C49.6274 19.3835 49.4427 19.4096 49.277 19.4332C48.9219 19.4853 48.6117 19.5682 48.3466 19.6818C48.0814 19.7955 47.8755 19.9493 47.7287 20.1435C47.5819 20.3329 47.5085 20.5696 47.5085 20.8537C47.5085 21.2656 47.6577 21.5805 47.956 21.7983C48.259 22.0114 48.6425 22.1179 49.1065 22.1179ZM56.7876 24V9.45455H59.8132V14.9233H59.9055C60.0381 14.6297 60.2299 14.3314 60.4808 14.0284C60.7365 13.7206 61.0679 13.465 61.4751 13.2614C61.8871 13.053 62.3984 12.9489 63.0092 12.9489C63.8047 12.9489 64.5386 13.1572 65.2109 13.5739C65.8833 13.9858 66.4207 14.6084 66.8232 15.4418C67.2256 16.2704 67.4268 17.3097 67.4268 18.5597C67.4268 19.7765 67.2304 20.804 66.8374 21.642C66.4491 22.4754 65.9188 23.1075 65.2464 23.5384C64.5788 23.9645 63.8307 24.1776 63.0021 24.1776C62.415 24.1776 61.9155 24.0805 61.5036 23.8864C61.0964 23.6922 60.7625 23.4484 60.5021 23.1548C60.2417 22.8565 60.0429 22.5559 59.9055 22.2528H59.7706V24H56.7876ZM59.7493 18.5455C59.7493 19.1941 59.8393 19.7599 60.0192 20.2429C60.1991 20.7259 60.4595 21.1023 60.8004 21.3722C61.1413 21.6373 61.5556 21.7699 62.0433 21.7699C62.5357 21.7699 62.9524 21.6349 63.2933 21.3651C63.6342 21.0904 63.8923 20.7116 64.0675 20.2287C64.2474 19.741 64.3374 19.1799 64.3374 18.5455C64.3374 17.9157 64.2498 17.3617 64.0746 16.8835C63.8994 16.4053 63.6413 16.0312 63.3004 15.7614C62.9595 15.4915 62.5405 15.3565 62.0433 15.3565C61.5509 15.3565 61.1342 15.4867 60.7933 15.7472C60.4571 16.0076 60.1991 16.3769 60.0192 16.8551C59.8393 17.3333 59.7493 17.8968 59.7493 18.5455ZM69.4457 24V13.0909H72.4712V24H69.4457ZM70.9656 11.6847C70.5157 11.6847 70.1299 11.5355 69.8079 11.2372C69.4906 10.9342 69.332 10.572 69.332 10.1506C69.332 9.7339 69.4906 9.37642 69.8079 9.07812C70.1299 8.77509 70.5157 8.62358 70.9656 8.62358C71.4154 8.62358 71.7989 8.77509 72.1161 9.07812C72.4381 9.37642 72.5991 9.7339 72.5991 10.1506C72.5991 10.572 72.4381 10.9342 72.1161 11.2372C71.7989 11.5355 71.4154 11.6847 70.9656 11.6847ZM80.6974 13.0909V15.3636H74.1278V13.0909H80.6974ZM75.6193 10.4773H78.6449V20.6477C78.6449 20.9271 78.6875 21.1449 78.7727 21.3011C78.858 21.4527 78.9763 21.5592 79.1278 21.6207C79.2841 21.6823 79.464 21.7131 79.6676 21.7131C79.8097 21.7131 79.9517 21.7012 80.0938 21.6776C80.2358 21.6491 80.3447 21.6278 80.4205 21.6136L80.8963 23.8651C80.7448 23.9124 80.5317 23.9669 80.2571 24.0284C79.9825 24.0947 79.6487 24.1349 79.2557 24.1491C78.5265 24.1776 77.8873 24.0805 77.3381 23.858C76.7936 23.6354 76.3698 23.2898 76.0668 22.821C75.7637 22.3523 75.6146 21.7604 75.6193 21.0455V10.4773ZM29.7102 28.9901V26.4545H41.6562V28.9901H37.2031V41H34.1634V28.9901H29.7102ZM42.4339 41V30.0909H45.3672V31.9943H45.4808C45.6797 31.3172 46.0135 30.8059 46.4822 30.4602C46.951 30.1098 47.4908 29.9347 48.1016 29.9347C48.2531 29.9347 48.4164 29.9441 48.5916 29.9631C48.7668 29.982 48.9207 30.008 49.0533 30.0412V32.7259C48.9112 32.6832 48.7147 32.6454 48.4638 32.6122C48.2128 32.5791 47.9832 32.5625 47.7749 32.5625C47.3298 32.5625 46.9321 32.6596 46.5817 32.8537C46.236 33.0431 45.9614 33.3082 45.7578 33.6491C45.5589 33.9901 45.4595 34.383 45.4595 34.8281V41H42.4339ZM53.4158 41.206C52.7198 41.206 52.0996 41.0852 51.555 40.8438C51.0105 40.5975 50.5797 40.2353 50.2624 39.7571C49.9499 39.2741 49.7937 38.6728 49.7937 37.9531C49.7937 37.3471 49.9049 36.8381 50.1275 36.4261C50.35 36.0142 50.6531 35.6828 51.0366 35.4318C51.4201 35.1809 51.8557 34.9915 52.3434 34.8636C52.8358 34.7358 53.3519 34.6458 53.8917 34.5938C54.5262 34.5275 55.0375 34.4659 55.4258 34.4091C55.814 34.3475 56.0958 34.2576 56.271 34.1392C56.4461 34.0208 56.5337 33.8456 56.5337 33.6136V33.571C56.5337 33.1212 56.3917 32.7732 56.1076 32.527C55.8282 32.2808 55.4305 32.1577 54.9144 32.1577C54.3699 32.1577 53.9367 32.2784 53.6147 32.5199C53.2927 32.7566 53.0797 33.0549 52.9755 33.4148L50.1772 33.1875C50.3192 32.5246 50.5986 31.9517 51.0153 31.4688C51.4319 30.9811 51.9693 30.607 52.6275 30.3466C53.2904 30.0814 54.0574 29.9489 54.9286 29.9489C55.5347 29.9489 56.1147 30.0199 56.6687 30.1619C57.2274 30.304 57.7222 30.5241 58.1531 30.8224C58.5887 31.1207 58.9319 31.5043 59.1829 31.973C59.4338 32.437 59.5593 32.9934 59.5593 33.642V41H56.69V39.4872H56.6048C56.4296 39.8281 56.1952 40.1288 55.9016 40.3892C55.6081 40.6449 55.2553 40.8461 54.8434 40.9929C54.4315 41.1349 53.9556 41.206 53.4158 41.206ZM54.2823 39.1179C54.7274 39.1179 55.1204 39.0303 55.4613 38.8551C55.8022 38.6752 56.0697 38.4337 56.2638 38.1307C56.458 37.8277 56.555 37.4844 56.555 37.1009V35.9432C56.4603 36.0047 56.3301 36.0616 56.1644 36.1136C56.0034 36.161 55.8211 36.206 55.6175 36.2486C55.4139 36.2865 55.2103 36.322 55.0067 36.3551C54.8031 36.3835 54.6185 36.4096 54.4528 36.4332C54.0977 36.4853 53.7875 36.5682 53.5224 36.6818C53.2572 36.7955 53.0513 36.9493 52.9045 37.1435C52.7577 37.3329 52.6843 37.5696 52.6843 37.8537C52.6843 38.2656 52.8335 38.5805 53.1317 38.7983C53.4348 39.0114 53.8183 39.1179 54.2823 39.1179ZM66.8356 41.2131C65.7182 41.2131 64.757 40.9763 63.9521 40.5028C63.1519 40.0246 62.5363 39.3617 62.1055 38.5142C61.6793 37.6667 61.4663 36.6913 61.4663 35.5881C61.4663 34.4706 61.6817 33.4905 62.1126 32.6477C62.5482 31.8002 63.1661 31.1397 63.9663 30.6662C64.7665 30.188 65.7182 29.9489 66.8214 29.9489C67.7731 29.9489 68.6064 30.1217 69.3214 30.4673C70.0363 30.813 70.6022 31.2983 71.0188 31.9233C71.4355 32.5483 71.6651 33.2822 71.7077 34.125H68.8526C68.7721 33.5805 68.5591 33.1425 68.2134 32.8111C67.8725 32.4749 67.4251 32.3068 66.8711 32.3068C66.4023 32.3068 65.9928 32.4347 65.6424 32.6903C65.2968 32.9413 65.0269 33.3082 64.8327 33.7912C64.6386 34.2741 64.5415 34.8589 64.5415 35.5455C64.5415 36.2415 64.6362 36.8333 64.8256 37.321C65.0198 37.8087 65.292 38.1804 65.6424 38.4361C65.9928 38.6918 66.4023 38.8196 66.8711 38.8196C67.2167 38.8196 67.5269 38.7486 67.8015 38.6065C68.0808 38.4645 68.3105 38.2585 68.4904 37.9886C68.6751 37.714 68.7958 37.3849 68.8526 37.0014H71.7077C71.6604 37.8348 71.4331 38.5687 71.0259 39.2031C70.6235 39.8329 70.0671 40.3253 69.3569 40.6804C68.6467 41.0355 67.8062 41.2131 66.8356 41.2131ZM76.3864 37.8608L76.3935 34.2315H76.8338L80.3281 30.0909H83.8011L79.1065 35.5739H78.3892L76.3864 37.8608ZM73.6449 41V26.4545H76.6705V41H73.6449ZM80.4631 41L77.2528 36.2486L79.2699 34.1108L84.0071 41H80.4631ZM89.8079 41.2131C88.6857 41.2131 87.7198 40.9858 86.9102 40.5312C86.1052 40.072 85.485 39.4233 85.0494 38.5852C84.6138 37.7424 84.396 36.7457 84.396 35.5952C84.396 34.473 84.6138 33.4882 85.0494 32.6406C85.485 31.7931 86.0981 31.1326 86.8888 30.6591C87.6843 30.1856 88.6171 29.9489 89.6871 29.9489C90.4068 29.9489 91.0768 30.0649 91.6971 30.2969C92.3221 30.5241 92.8666 30.8674 93.3306 31.3267C93.7994 31.786 94.1639 32.3636 94.4244 33.0597C94.6848 33.7509 94.815 34.5606 94.815 35.4886V36.3196H85.6033V34.4446H91.967C91.967 34.009 91.8723 33.6231 91.6829 33.2869C91.4935 32.9508 91.2307 32.688 90.8945 32.4986C90.5631 32.3045 90.1772 32.2074 89.7369 32.2074C89.2776 32.2074 88.8704 32.3139 88.5153 32.527C88.1649 32.7353 87.8903 33.017 87.6914 33.3722C87.4925 33.7225 87.3907 34.1132 87.386 34.544V36.3267C87.386 36.8665 87.4854 37.3329 87.6843 37.7259C87.8879 38.1188 88.1744 38.4219 88.5437 38.6349C88.913 38.848 89.351 38.9545 89.8576 38.9545C90.1938 38.9545 90.5015 38.9072 90.7809 38.8125C91.0603 38.7178 91.2994 38.5758 91.4982 38.3864C91.6971 38.197 91.8486 37.965 91.9528 37.6903L94.7511 37.875C94.609 38.5473 94.3178 39.1345 93.8775 39.6364C93.4419 40.1335 92.8784 40.5218 92.1871 40.8011C91.5006 41.0758 90.7075 41.2131 89.8079 41.2131ZM96.7894 41V30.0909H99.7227V31.9943H99.8363C100.035 31.3172 100.369 30.8059 100.838 30.4602C101.306 30.1098 101.846 29.9347 102.457 29.9347C102.609 29.9347 102.772 29.9441 102.947 29.9631C103.122 29.982 103.276 30.008 103.409 30.0412V32.7259C103.267 32.6832 103.07 32.6454 102.819 32.6122C102.568 32.5791 102.339 32.5625 102.13 32.5625C101.685 32.5625 101.288 32.6596 100.937 32.8537C100.592 33.0431 100.317 33.3082 100.113 33.6491C99.9144 33.9901 99.815 34.383 99.815 34.8281V41H96.7894Z" fill="#171930"/>
<defs>
<linearGradient id="paint0_linear_24_1016" x1="9" y1="7" x2="9" y2="43" gradientUnits="userSpaceOnUse">
<stop stop-color="#654EA3"/>
<stop offset="1" stop-color="#EAAFC8"/>
</linearGradient>
</defs>
</svg>
