<svg width="22" height="17" viewBox="0 0 22 17" fill="none" xmlns="http://www.w3.org/2000/svg">
<path d="M18.5803 0.541994C18.9604 0.190513 19.4663 -0.00380052 19.9912 5.63355e-05C20.5161 0.00391319 21.0189 0.205639 21.3936 0.562667C21.7682 0.919694 21.9854 1.4041 21.9993 1.91367C22.0132 2.42323 21.8227 2.91811 21.468 3.29386L10.6999 16.3718C10.5147 16.5655 10.2912 16.7209 10.0428 16.8288C9.79436 16.9366 9.52608 16.9948 9.25399 16.9997C8.9819 17.0046 8.71158 16.9561 8.45921 16.8572C8.20684 16.7584 7.97759 16.6111 7.78517 16.4242L0.64422 9.48949C0.445356 9.30954 0.285853 9.09253 0.175225 8.85142C0.0645965 8.6103 0.00511014 8.35002 0.000315 8.0861C-0.00448014 7.82217 0.0455143 7.56001 0.147315 7.31526C0.249115 7.07051 0.400637 6.84817 0.59284 6.66152C0.785043 6.47487 1.01399 6.32772 1.26602 6.22886C1.51806 6.13 1.78801 6.08145 2.05979 6.08611C2.33156 6.09076 2.59959 6.14853 2.84787 6.25597C3.09616 6.3634 3.31962 6.5183 3.50492 6.71142L9.15615 12.1968L18.529 0.599653C18.5459 0.579475 18.5639 0.560225 18.583 0.541994H18.5803Z" fill="white"/>
</svg>
